:version 1.10
:name ASF
:units
  mass 1
  length 1
  angle deg
:documentation
  ASF file generated by Kaydara
:root
  axis xyz
  order  tx ty tz rx ry rz
  position 0 0 0
  orientation 0 0 0
:bonedata
  begin
    id 1
    name RightUpLegDummy
    direction -1 2.30186e-007 8.31532e-007
    length 4.46685
    axis 0 0 0 xyz
  end
  begin
    id 2
    name RightUpLeg
    direction -2.30187e-007 -1 1.24343e-010
    length 16.4045
    axis -3.49089 -0.000906625 0.000286804 xyz
    dof rx ry rz
  end
  begin
    id 3
    name RightLeg
    direction -2.30181e-007 -1 -4.17157e-009
    length 17.5097
    axis 3.68512 0.0193738 -0.131023 xyz
    dof rx ry rz
  end
  begin
    id 4
    name RightFoot
    direction 8.31421e-007 -4.51202e-011 1
    length 6.49508
    axis 4.81691e-005 -0.120479 -0.188788 xyz
    dof rx ry rz
  end
  begin
    id 5
    name RightToes
    direction 0.00124746 -0.014064 0.9999
    length 3.85082
    axis 0.000481921 0.542163 -0.142578 xyz
    dof rx ry rz
  end
  begin
    id 6
    name SpineDummy
    direction 0.0717043 0.9409 -0.331007
    length 10.0032
    axis 0 0 0 xyz
  end
  begin
    id 7
    name Spine
    direction 2.30186e-007 1 4.58806e-011
    length 9.84055
    axis -0.001389 0.000121418 2.40972e-006 xyz
    dof rx ry rz
  end
  begin
    id 8
    name Spine1
    direction 0 0 0
    length 0
    axis -0.001389 0.000121451 1.30017e-006 xyz
    dof rx ry rz
  end
  begin
    id 9
    name HEadDummy
    direction -0.00347485 0.950688 -0.310128
    length 8.00997
    axis -0.001389 0.000121451 1.30017e-006 xyz
  end
  begin
    id 10
    name HEad
    direction -0.0222688 0.980941 0.193023
    length 5.12695
    axis -0.001389 0.000121451 1.30017e-006 xyz
    dof rx ry rz
  end
  begin
    id 11
    name LeftShoulder1Dummy
    direction 0.988871 0.146793 -0.0242004
    length 3.5792
    axis -0.001389 0.000121451 1.30017e-006 xyz
  end
  begin
    id 12
    name LeftShoulder1
    direction 0.993832 0.108932 0.020779
    length 4.16823
    axis -0.001389 0.000121451 1.30017e-006 xyz
    dof rx ry rz
  end
  begin
    id 13
    name LeftArm
    direction 1 3.44807e-006 -8.31404e-007
    length 9.91437
    axis -23.1894 0.134784 0.967509 xyz
    dof rx ry rz
  end
  begin
    id 14
    name LeftForeArm
    direction 1 3.44842e-006 -8.31581e-007
    length 9.08575
    axis -9.91835 -0.06569 -0.177793 xyz
    dof rx ry rz
  end
  begin
    id 15
    name LeftHand
    direction 0.992938 -0.0411636 0.11126
    length 5.32135
    axis -0.00960232 -0.00340091 0.185173 xyz
    dof rx ry rz
  end
  begin
    id 16
    name RightShoulderDummy
    direction -0.988871 0.146793 -0.0241962
    length 3.5792
    axis -0.001389 0.000121451 1.30017e-006 xyz
  end
  begin
    id 17
    name RightShoulder
    direction -0.993832 0.108933 0.0207785
    length 4.16823
    axis 0.215806 0.000203643 -0.0068026 xyz
    dof rx ry rz
  end
  begin
    id 18
    name RightArm
    direction -1 3.90912e-006 8.31284e-007
    length 9.91437
    axis -23.2009 -0.134239 -0.964101 xyz
    dof rx ry rz
  end
  begin
    id 19
    name RightForeArm
    direction -1 3.90882e-006 8.31502e-007
    length 9.08575
    axis -9.92322 0.0658061 0.178867 xyz
    dof rx ry rz
  end
  begin
    id 20
    name RightHand
    direction -0.992843 -0.0414603 0.112003
    length 5.28593
    axis -0.00960638 0.00330671 -0.185228 xyz
    dof rx ry rz
  end
  begin
    id 21
    name LeftUpLegDummy
    direction 1 -2.30186e-007 -8.31532e-007
    length 4.46685
    axis 0 0 0 xyz
  end
  begin
    id 22
    name LeftUpLeg
    direction -2.30187e-007 -1 6.00931e-010
    length 16.4045
    axis -3.48766 0.00143442 -0.000524262 xyz
    dof rx ry rz
  end
  begin
    id 23
    name LeftLeg
    direction -2.30187e-007 -1 1.6669e-009
    length 17.5097
    axis 3.68178 -0.00654042 -0.000285133 xyz
    dof rx ry rz
  end
  begin
    id 24
    name LeftFoot
    direction 8.31532e-007 -4.54478e-011 1
    length 6.49508
    axis 1.87233e-006 4.66016e-005 -8.6538e-006 xyz
    dof rx ry rz
  end
  begin
    id 25
    name LeftToes
    direction 0.00818058 -0.00485161 0.999955
    length 3.85048
    axis 1.06247e-005 4.65869e-005 -8.65513e-006 xyz
    dof rx ry rz
  end
:hierarchy
  begin
    root RightUpLegDummy SpineDummy LeftUpLegDummy
    RightUpLegDummy RightUpLeg
    RightUpLeg RightLeg
    RightLeg RightFoot
    RightFoot RightToes
    SpineDummy Spine
    Spine Spine1
    Spine1 HEadDummy LeftShoulder1Dummy RightShoulderDummy
    HEadDummy HEad
    LeftShoulder1Dummy LeftShoulder1
    LeftShoulder1 LeftArm
    LeftArm LeftForeArm
    LeftForeArm LeftHand
    RightShoulderDummy RightShoulder
    RightShoulder RightArm
    RightArm RightForeArm
    RightForeArm RightHand
    LeftUpLegDummy LeftUpLeg
    LeftUpLeg LeftLeg
    LeftLeg LeftFoot
    LeftFoot LeftToes
  end

:SAMPLES-PER-SECOND 30
:FULLY-SPECIFIED
:DEGREES
181
root  -36.8442 27.4278 -2.46668 26.2547 -14.6658 -9.73953
RightUpLeg  -53.9047 6.87877 -14.9409
RightLeg  65.4419 5.60543 10.1908
RightFoot  -13.3874 -0.252683 -1.77532
RightToes  -66.0339 -0.452211 -0.410737
Spine  20.0571 -2.95887 -0.404267
Spine1  31.578 -7.83689 1.45765
HEad  6.14803 -6.24064 17.0175
LeftShoulder1  0 -2.42657e-020 -4.95415e-022
LeftArm  -22.7279 -48.4715 -76.2822
LeftForeArm  55.0426 -34.818 -7.00399
LeftHand  -0.537013 -14.1916 3.9439
RightShoulder  0 2.42657e-020 1.07489e-018
RightArm  -32.0744 32.9143 102.066
RightForeArm  30.7614 20.7946 3.83221
RightHand  -0.95746 20.823 -4.83889
LeftUpLeg  -62.9407 -4.29149 33.3228
LeftLeg  73.162 3.1356 8.29636
LeftFoot  -8.40046 -0.29658 -4.03678
LeftToes  -35.4905 2.34596e-006 -6.06653e-008
182
root  -37.397 26.2488 -3.28591 27.1383 -15.8171 -9.22798
RightUpLeg  -57.1494 6.0615 -17.1239
RightLeg  68.3907 7.4884 15.2886
RightFoot  -19.9149 -0.884424 -4.65716
RightToes  -69.9823 -0.490524 -0.415616
Spine  21.4445 -3.83657 1.43114
Spine1  32.9532 -9.85484 3.70935
HEad  3.97626 -2.45752 10.3253
LeftShoulder1  0 -2.42657e-020 -4.95415e-022
LeftArm  -19.011 -53.1627 -82.4282
LeftForeArm  57.3493 -26.5107 -4.99842
LeftHand  -0.561603 -14.1025 4.17003
RightShoulder  0 2.42657e-020 1.07489e-018
RightArm  -34.4481 39.2288 102.825
RightForeArm  27.3618 18.7284 3.42214
RightHand  -0.165266 21.8987 -0.484363
LeftUpLeg  -65.7878 -4.64716 36.7628
LeftLeg  76.3838 2.27839 7.2527
LeftFoot  -8.93203 -0.360512 -4.61327
LeftToes  -40.561 2.34596e-006 -6.06653e-008
183
root  -37.8127 25.2438 -4.12913 28.3983 -17.4605 -8.12421
RightUpLeg  -62.4574 1.59181 -15.0543
RightLeg  73.2602 5.1656 13.3983
RightFoot  -24.7448 -1.10687 -4.66539
RightToes  -64.1266 -0.433844 -0.41154
Spine  22.5021 -3.71581 2.99888
Spine1  33.759 -9.7154 5.6767
HEad  1.99114 -0.502325 5.73948
LeftShoulder1  0 -2.42657e-020 -4.95415e-022
LeftArm  -13.2191 -58.3298 -92.721
LeftForeArm  62.2099 -18.4434 -3.31514
LeftHand  -0.299743 -13.733 2.11987
RightShoulder  0 2.42657e-020 1.07489e-018
RightArm  -40.1239 45.4415 101.061
RightForeArm  23.3994 16.1862 2.93072
RightHand  0.337115 19.8081 2.30134
LeftUpLeg  -68.1422 -3.51949 38.3996
LeftLeg  78.2952 1.79768 6.47831
LeftFoot  -10.4192 -0.474064 -5.1959
LeftToes  -40.1961 2.34596e-006 -6.06653e-008
184
root  -38.1459 24.5885 -4.9687 29.7383 -18.4111 -6.18968
RightUpLeg  -68.3378 0.726864 -16.5027
RightLeg  77.7754 4.09547 13.7856
RightFoot  -26.0621 -1.20446 -4.82343
RightToes  -63.3976 -0.426855 -0.406014
Spine  23.0718 -3.09706 4.385
Spine1  34.02 -8.47071 7.52181
HEad  -1.04282 -0.579955 2.48083
LeftShoulder1  0 -2.42657e-020 -4.95415e-022
LeftArm  -3.54867 -61.3447 -104.196
LeftForeArm  66.677 -12.5649 -2.18977
LeftHand  0.322066 -13.0722 -3.18206
RightShoulder  0 2.42657e-020 1.07489e-018
RightArm  -49.5401 51.2243 94.2583
RightForeArm  24.3613 13.1677 2.36258
RightHand  0.500551 19.7813 3.24125
LeftUpLeg  -70.8282 -2.34802 38.2245
LeftLeg  78.9149 2.00946 7.55131
LeftFoot  -10.2213 -0.515127 -5.75501
LeftToes  -38.8353 2.34596e-006 -6.06653e-008
185
root  -38.3926 24.3099 -5.59469 29.8869 -17.5302 -3.45732
RightUpLeg  -71.3519 -0.980426 -18.028
RightLeg  80.763 3.19607 13.2825
RightFoot  -26.9006 -1.17484 -4.53206
RightToes  -62.1906 -0.415325 -0.404241
Spine  23.6069 -2.88379 6.00365
Spine1  34.7508 -7.53059 9.30832
HEad  -3.45068 -1.09896 -1.37697
LeftShoulder1  0 -2.42657e-020 -4.95415e-022
LeftArm  3.37325 -60.0107 -110.985
LeftForeArm  63.1218 -12.5159 -2.18931
LeftHand  0.537459 -13.1056 -5.04889
RightShoulder  0 2.42657e-020 1.07489e-018
RightArm  -61.6105 55.802 81.7983
RightForeArm  26.5694 10.6639 1.90205
RightHand  0.122576 19.7246 1.07542
LeftUpLeg  -73.5723 -2.87306 36.9355
LeftLeg  78.4081 2.47124 8.9478
LeftFoot  -8.84598 -0.45837 -5.92073
LeftToes  -36.4203 2.34596e-006 -6.06653e-008
186
root  -38.554 24.4084 -6.09396 29.8311 -16.5874 -1.26456
RightUpLeg  -72.4378 -2.61157 -19.1435
RightLeg  81.3009 3.07549 13.3337
RightFoot  -26.7488 -1.14799 -4.44822
RightToes  -61.1028 -0.404982 -0.403841
Spine  23.7018 -2.60684 7.02725
Spine1  35.2036 -6.40832 10.4517
HEad  -5.13632 -0.788922 -4.11724
LeftShoulder1  0 -2.42657e-020 -4.95415e-022
LeftArm  2.87931 -55.8191 -110.254
LeftForeArm  59.3994 -17.1956 -3.07911
LeftHand  0.0959211 -13.5692 -1.17679
RightShoulder  0 2.42657e-020 1.07489e-018
RightArm  -71.8936 56.5079 68.8146
RightForeArm  26.1082 11.1592 1.99249
RightHand  0.237269 20.5848 1.67706
LeftUpLeg  -75.0183 -2.6101 34.8611
LeftLeg  76.6718 2.81759 9.10611
LeftFoot  -7.32453 -0.359524 -5.6126
LeftToes  -33.1923 2.34596e-006 -6.06653e-008
